<?xml version="1.0" encoding="UTF-8"?>
<!-- Generator: Adobe Illustrator 15.0.2, SVG Export Plug-In . SVG Version: 6.00 Build 0)  -->
<!DOCTYPE svg PUBLIC "-//W3C//DTD SVG 1.1//EN" "http://www.w3.org/Graphics/SVG/1.1/DTD/svg11.dtd">
<svg xmlns="http://www.w3.org/2000/svg" xmlns:xlink="http://www.w3.org/1999/xlink" version="1.1" id="Layer_1" x="0px" y="0px" width="512px" height="435.2px" viewBox="0 0 512 435.2" enable-background="new 0 0 512 435.2" xml:space="preserve">
<path d="M25.6,0h460.8C500.537,0,512,11.462,512,25.6v281.6c0,14.138-11.463,25.6-25.6,25.6h-192V384H345.6  c14.138,0,25.601,11.463,25.601,25.6V435.2H140.8V409.6c0-14.137,11.463-25.6,25.601-25.6H217.6v-51.2h-192  C11.462,332.8,0,321.338,0,307.2V25.6C0,11.462,11.462,0,25.6,0z M38.4,38.4v256h435.2v-256H38.4z M64,64h51.2v51.2H64V64z   M140.8,64H448v51.2H140.8V64z M64,140.8h51.2V192H64V140.8z M140.8,140.8H448V192H140.8V140.8z M64,217.6h51.2v51.2H64V217.6z   M140.8,217.6H448v51.2H140.8V217.6z" fill="#000000"/>
</svg>
